<svg xmlns="http://www.w3.org/2000/svg" width="110.373" height="15.743" viewBox="0 0 110.373 15.743">
  <g id="OBJECTS" transform="translate(0.523 0) rotate(3)">
    <path id="Path_38" data-name="Path 38" d="M58.237,134l-.327-.291-.286.332H57.04a6.554,6.554,0,0,0-.374,1.9,7.992,7.992,0,0,0,.093,1.6c.268.149.554.291.87.434a3.815,3.815,0,0,1,.969.678l.082-.068.239-.278.344.373h1.325l.344-.366h1.313l.362.339.274-.318h2.691l.362.312c.134-.156.21-.251.3-.346h1.313l.356-.386h.981l.356.359.309-.352h3.98l.35-.413h1.366l.228-.725a2.025,2.025,0,0,1,1.167.068l.222.725c.385-.163.776.088,1.126-.169.07-.23.134-.454.2-.678h2.679l.356.359.245-.291c.368.163.706.5,1.132.23l.584-.678h.35c.105.251.21.515.309.759h.584a8.429,8.429,0,0,1,1.01-.678.665.665,0,0,1,.893.115c.28.325.584.183.893.1l.251-.291.344.366.339-.373h3.309l.344.346.35-.325.286.332.344-.339c.689-.075,1.4.041,2.025-.054l.3-.352h3.975l.35-.379h.654l.432.44.992-.339.216.251.368-.359h1.453a1.154,1.154,0,0,1,.3.115l.222.264.368-.393h7.926l.344-.339.333.312h3.338l.286-.332h.671c.193.095.3.508.665.359l.35-.379h4.961l.35-.373.286.332h4.973l.584-.407.42.407h2.393l.292-.339c.175.224.344.495.671.366l.356-.379h7.284l.309-.352h2.335l.315-.366h4l.455.4,1.237-.752.309.318.292-.285c.373.149.461.61.817.678l.309-.1.158-1.043c.438,0,.823-.136,1.261.163-.245.285-.624.6-.333.833.543.325.625-.163.981-.264h.835l.315-.285,1.045.678.309-.318.339.346.309-.359h1.611l.385-.352h1.208l.695.406.409-.434.35.366h.613l.327-.325.519.379.531-.386.274.325.356-.373h.677l.379.413c.14-.047.286-.095.484-.149v-1.68c.484-.3.835,0,1.231.217a3.066,3.066,0,0,0,0-1.457h-.788c-.117.135-.193.23-.274.318-.193-.318-.584-.312-.951-.678l.951-.068c.158-.176.315-.359.467-.549l-.146-.2h-1.3l-.4-.352-.292.339-.35-.373H152.541c-.123.129-.233.251-.379.393-.14-.352-.391-.373-.683-.413a3.693,3.693,0,0,1-.875-.379l-.368.352h-1.751l-.584-.738q-.175.42-.315.772h-1.016l-.3-.352h-1.99l-.321-.366h-1.593l-.654.4-.49-.427c-.362-.054-.438.264-.624.366s-.333.054-.432.163a.474.474,0,0,1-.584.2l-.333-.332h-.91l-.624.427-.467-.447h-1.1a1.262,1.262,0,0,0-.3.095l-.233.278-.5-.474-.531.467h-1.652c-.245-.3-.479-.6-.817-.176v.915a3.046,3.046,0,0,1,1.43.183,1.82,1.82,0,0,1-1.313.156c-.047-.122-.082-.23-.117-.339l-.525-.352-.315.745c-.286-.068-.584.135-.817-.2l.66-.359v-.42l-.484-.528h-2.025c-.333.285-.479.8-.957.725l-.35-.379h-.654l-.35-.386h-1.646l-.362.393h-1.109c-.14.237-.333.542-.479.772-.344,0-.584,0-.543-.393h-.49l-.327-.346-.5.393-.671-.454c-.35.081-.438.549-.823.386l-.339-.346a1.975,1.975,0,0,0-1.086.081l-.251.285h-2.335l-.344.366-.339-.346h-1.646l-.315.291-.584-.373-.426.42-1.033.061-.3.346c-.374-.041-.759.135-1.1-.108l-.245-.264h-1.646l-.379.4h-3.566l-.362.339-.263-.3c-.374-.075-.759-.183-1.033.325H98.817c-.041,0-.088.061-.128.095l-.233.278-.35-.373H96.424l-.368.393h-4.3l-.3.352H88.166l-.409.373-.263-.312H83.409l-.327.386H81.419l-.292.339h-6.3l-.362.393H71.836l-.374.393H66.507l-.3.352h-7C58.966,134.2,58.587,134.076,58.237,134Zm101.979-2.222.117.135a1.039,1.039,0,0,1-.222.122c-.029,0-.07-.081-.111-.122Zm-12.326-1.978c.035.041.105.095.1.129a1.556,1.556,0,0,1-.1.257l-.123-.142Zm-1.389.075a.891.891,0,0,1,.222.115l-.117.142-.21-.142C146.431,129.944,146.477,129.856,146.5,129.869Zm-8.235.318a1.685,1.685,0,0,1,.449.068c-.035.346-.035.346-1.354.163C137.729,130.066,138.009,130.215,138.265,130.188Zm-7.99-.759c.047,0,.1.149.123.237s-.07.129-.111.129a3.491,3.491,0,0,1-.444-.068v-.244a1.934,1.934,0,0,1,.432-.054Zm-6.957,4.993-.117-.135.117-.251c.041.047.111.095.105.129a1.072,1.072,0,0,1-.1.257Zm0-3.469c.035.047.111.095.105.129a1.21,1.21,0,0,1-.105.257l-.117-.136Zm-.992-.379c.035.041.105.095.1.122a1.2,1.2,0,0,1-.1.257l-.123-.135ZM77.24,136.82c.029,0,.07.075.111.122a1.2,1.2,0,0,1-.222.122s-.076-.081-.111-.122a.8.8,0,0,1,.228-.122Z" transform="translate(-56.66 -128.67)" fill="#00275a"/>
    <path id="Path_39" data-name="Path 39" d="M57.26,136.8l1.11-.7.12.8C58.07,137.236,57.75,137.236,57.26,136.8Z" transform="translate(50.91 -131.989)" fill="#00275a"/>
    <path id="Path_40" data-name="Path 40" d="M65.22,134.669a2.181,2.181,0,0,1,.38-.18s.13.12.19.18a2.181,2.181,0,0,1-.38.18C65.36,134.859,65.28,134.729,65.22,134.669Z" transform="translate(35.65 -128.746)" fill="#00275a"/>
    <path id="Path_41" data-name="Path 41" d="M56.89,141.1l-.2-.21a2.111,2.111,0,0,1,.38-.17c.05,0,.12.11.19.17Z" transform="translate(52.71 -138.39)" fill="#00275a"/>
    <path id="Path_42" data-name="Path 42" d="M132.415,142.28l.5-.58C133.3,142.2,132.855,142.16,132.415,142.28Z" transform="translate(-67.166 -140.55)" fill="#00275a"/>
  </g>
</svg>
