<?xml version="1.0" encoding="UTF-8"?>
<svg xmlns="http://www.w3.org/2000/svg" xmlns:xlink="http://www.w3.org/1999/xlink" viewBox="0 0 30 30" width="35px"
     height="35px">
    <g id="surface68287880">
        <path style="fill-rule:nonzero;fill:currentColor;fill-opacity:1;stroke-width:10;stroke-linecap:butt;stroke-linejoin:round;stroke:currentColor;stroke-opacity:1;stroke-miterlimit:10;"
              d="M 116.95128 10.328153 C 141.622245 10.328153 161.671849 30.377756 161.671849 55.048722 L 161.671849 116.95128 C 161.671849 141.622245 141.622245 161.671849 116.95128 161.671849 L 55.048722 161.671849 C 30.377756 161.671849 10.328153 141.622245 10.328153 116.95128 L 10.328153 55.048722 C 10.328153 30.377756 30.377756 10.328153 55.048722 10.328153 Z M 17.200948 55.048722 L 17.200948 116.95128 C 17.200948 137.901456 34.098545 154.799053 55.048722 154.799053 L 116.95128 154.799053 C 137.901456 154.799053 154.799053 137.901456 154.799053 116.95128 L 154.799053 55.048722 C 154.799053 34.098545 137.901456 17.200948 116.95128 17.200948 L 55.048722 17.200948 C 34.098545 17.200948 17.200948 34.098545 17.200948 55.048722 Z M 134.156967 44.715829 C 134.156967 48.531416 131.076059 51.588625 127.284172 51.588625 C 123.468586 51.588625 120.411377 48.531416 120.411377 44.715829 C 120.411377 40.923942 123.468586 37.843034 127.284172 37.843034 C 131.076059 37.843034 134.156967 40.923942 134.156967 44.715829 Z M 123.847774 86.000001 C 123.847774 106.85538 106.85538 123.847774 86.000001 123.847774 C 65.144621 123.847774 48.152227 106.85538 48.152227 86.000001 C 48.152227 65.144621 65.144621 48.152227 86.000001 48.152227 C 106.85538 48.152227 123.847774 65.144621 123.847774 86.000001 Z M 55.048722 86.000001 C 55.048722 103.134591 68.865411 116.95128 86.000001 116.95128 C 103.134591 116.95128 116.95128 103.134591 116.95128 86.000001 C 116.95128 68.865411 103.134591 55.048722 86.000001 55.048722 C 68.865411 55.048722 55.048722 68.865411 55.048722 86.000001 Z M 55.048722 86.000001 "
              transform="matrix(0.164826,0,0,0.164826,0.825,0.825)"/>
        <path style=" stroke:none;fill-rule:nonzero;fill:currentColor;fill-opacity:1;"
              d="M 9.898438 2.527344 C 5.832031 2.527344 2.527344 5.832031 2.527344 9.898438 L 2.527344 20.101562 C 2.527344 24.167969 5.832031 27.472656 9.898438 27.472656 L 20.101562 27.472656 C 24.167969 27.472656 27.472656 24.167969 27.472656 20.101562 L 27.472656 9.898438 C 27.472656 5.832031 24.167969 2.527344 20.101562 2.527344 Z M 9.898438 3.660156 L 20.101562 3.660156 C 23.554688 3.660156 26.339844 6.445312 26.339844 9.898438 L 26.339844 20.101562 C 26.339844 23.554688 23.554688 26.339844 20.101562 26.339844 L 9.898438 26.339844 C 6.445312 26.339844 3.660156 23.554688 3.660156 20.101562 L 3.660156 9.898438 C 3.660156 6.445312 6.445312 3.660156 9.898438 3.660156 Z M 21.804688 7.0625 C 21.175781 7.0625 20.671875 7.570312 20.671875 8.195312 C 20.671875 8.824219 21.175781 9.328125 21.804688 9.328125 C 22.429688 9.328125 22.9375 8.824219 22.9375 8.195312 C 22.9375 7.570312 22.429688 7.0625 21.804688 7.0625 Z M 15 8.761719 C 11.5625 8.761719 8.761719 11.5625 8.761719 15 C 8.761719 18.4375 11.5625 21.238281 15 21.238281 C 18.4375 21.238281 21.238281 18.4375 21.238281 15 C 21.238281 11.5625 18.4375 8.761719 15 8.761719 Z M 15 9.898438 C 17.824219 9.898438 20.101562 12.175781 20.101562 15 C 20.101562 17.824219 17.824219 20.101562 15 20.101562 C 12.175781 20.101562 9.898438 17.824219 9.898438 15 C 9.898438 12.175781 12.175781 9.898438 15 9.898438 Z M 15 9.898438 "/>
    </g>
</svg>
